<svg width="29" height="19" viewBox="0 0 29 19" fill="none" xmlns="http://www.w3.org/2000/svg">
<path fill-rule="evenodd" clip-rule="evenodd" d="M11.9962 8.63387C12.7336 8.31512 13.3744 7.79547 13.8507 7.12986C14.2886 6.42298 14.5061 5.59326 14.4737 4.75352C14.5021 3.98774 14.3583 3.22562 14.0536 2.52759C13.7976 1.92285 13.3866 1.40263 12.8655 1.02358C12.313 0.629485 11.6856 0.362809 11.0255 0.24149C10.2444 0.0714068 9.44757 -0.00928866 8.64946 0.000848798H0.414286C0.185482 0.000848798 0 0.183133 0 0.407992V18.5142C0 18.739 0.185482 18.9213 0.414286 18.9213H8.83781C9.64435 18.9219 10.4477 18.8158 11.2284 18.6055C11.9683 18.4068 12.6694 18.076 13.3002 17.6279C13.9112 17.1883 14.4087 16.5995 14.749 15.9133C15.1256 15.1459 15.3099 14.2925 15.2851 13.4317C15.3125 12.3649 15.0243 11.3151 14.4592 10.4236C13.8516 9.52714 12.9503 8.89094 11.9238 8.63387H11.9962ZM4.21187 3.05357C4.05933 3.05357 3.93568 3.17509 3.93568 3.325V7.53214C3.93568 7.68205 4.05933 7.80357 4.21187 7.80357H8.07854C9.41322 7.80357 10.4952 6.74025 10.4952 5.42857C10.4952 4.11689 9.41322 3.05357 8.07854 3.05357H4.21187ZM3.93568 10.45C3.93568 10.3001 4.05933 10.1786 4.21187 10.1786H8.25116C9.87185 10.1786 11.1857 11.4697 11.1857 13.0625C11.1857 14.6552 9.87185 15.9464 8.25116 15.9464H4.21187C4.05933 15.9464 3.93568 15.8249 3.93568 15.675V10.45Z" fill="black"/>
<path d="M19.249 0.963416H25.7714C25.9981 0.963416 26.1826 1.14239 26.1857 1.36509L26.2035 2.67146C26.2066 2.89844 26.0203 3.08407 25.7893 3.08407H19.249C19.0202 3.08407 18.8347 2.90179 18.8347 2.67693V1.37056C18.8347 1.1457 19.0202 0.963416 19.249 0.963416Z" fill="black"/>
<path fill-rule="evenodd" clip-rule="evenodd" d="M22.7465 16.1088C23.4146 16.1301 24.0727 15.9356 24.63 15.5523C24.9888 15.3175 25.2746 14.9822 25.4556 14.5868C25.5035 14.4821 25.6062 14.4093 25.723 14.4093H28.3758C28.5557 14.4093 28.6876 14.5757 28.6346 14.7446C28.2302 16.0327 27.4372 17.1554 26.3685 17.9437C25.2197 18.6742 23.8902 19.0401 22.5437 18.9965C21.5839 19.0135 20.6299 18.8399 19.7329 18.4852C18.9285 18.154 18.2057 17.6401 17.6177 16.9811C17.0492 16.3099 16.6158 15.5276 16.3427 14.68C16.0212 13.744 15.8642 12.7558 15.8791 11.7622C15.8702 10.7826 16.0322 9.80934 16.3572 8.88956C16.66 8.03756 17.1285 7.25938 17.7336 6.60346C18.3403 5.96039 19.0643 5.44912 19.8633 5.09945C20.7359 4.725 21.6719 4.53578 22.6161 4.54296C23.62 4.52687 24.6132 4.75885 25.5137 5.21977C26.3231 5.65731 27.0265 6.2795 27.5711 7.03962C28.1121 7.82325 28.5054 8.7061 28.7301 9.64156C28.9625 10.6248 29.0456 11.6397 28.9764 12.6496H19.3852C19.3428 13.6195 19.6649 14.5685 20.2835 15.2966C20.6181 15.6007 21.0095 15.8298 21.4334 15.9695C21.8572 16.1093 22.3042 16.1567 22.7465 16.1088ZM19.4714 10.0412C19.4714 10.1171 19.534 10.1786 19.6111 10.1786H25.2007C25.2779 10.1786 25.3404 10.1171 25.3404 10.0412C25.3404 8.52434 24.0892 7.29464 22.5457 7.29464H22.2662C20.7227 7.29464 19.4714 8.52434 19.4714 10.0412Z" fill="black"/>
</svg>
