<svg width="20" height="19" viewBox="0 0 20 19" fill="none" xmlns="http://www.w3.org/2000/svg">
<path d="M9.85797 6.54253C8.06305 6.54253 6.60797 7.9976 6.60797 9.79253C6.60797 11.5875 8.06305 13.0425 9.85797 13.0425C11.6529 13.0425 13.108 11.5875 13.108 9.79253C13.108 7.9976 11.6529 6.54253 9.85797 6.54253Z" fill="#E3C2B3"/>
<path fill-rule="evenodd" clip-rule="evenodd" d="M4.62751 0.873995C8.07563 0.488616 11.6403 0.488616 15.0885 0.873995C16.9869 1.08617 18.518 2.58195 18.7409 4.487C19.1531 8.012 19.1531 11.573 18.7409 15.0981C18.518 17.0031 16.9869 18.4989 15.0885 18.7111C11.6403 19.0964 8.07563 19.0964 4.62751 18.7111C2.72911 18.4989 1.19792 17.0031 0.975104 15.0981C0.562823 11.573 0.562823 8.012 0.975104 4.487C1.19792 2.58195 2.72911 1.08617 4.62751 0.873995ZM14.858 3.79253C14.3057 3.79253 13.858 4.24024 13.858 4.79253C13.858 5.34481 14.3057 5.79253 14.858 5.79253C15.4103 5.79253 15.858 5.34481 15.858 4.79253C15.858 4.24024 15.4103 3.79253 14.858 3.79253ZM5.10797 9.79253C5.10797 7.16917 7.23462 5.04253 9.85797 5.04253C12.4813 5.04253 14.608 7.16917 14.608 9.79253C14.608 12.4159 12.4813 14.5425 9.85797 14.5425C7.23462 14.5425 5.10797 12.4159 5.10797 9.79253Z" fill="#E3C2B3"/>
</svg>
