<svg width="20" height="19" viewBox="0 0 20 19" fill="none" xmlns="http://www.w3.org/2000/svg">
<path d="M9.85797 5.95757C8.06305 5.95757 6.60797 7.41264 6.60797 9.20757C6.60797 11.0025 8.06305 12.4576 9.85797 12.4576C11.6529 12.4576 13.108 11.0025 13.108 9.20757C13.108 7.41264 11.6529 5.95757 9.85797 5.95757Z" fill="black"/>
<path fill-rule="evenodd" clip-rule="evenodd" d="M4.62751 0.289034C8.07563 -0.0963446 11.6403 -0.0963446 15.0885 0.289034C16.9869 0.501208 18.518 1.99699 18.7409 3.90204C19.1531 7.42704 19.1531 10.9881 18.7409 14.5131C18.518 16.4181 16.9869 17.9139 15.0885 18.1261C11.6403 18.5115 8.07563 18.5115 4.62751 18.1261C2.72911 17.9139 1.19792 16.4181 0.975104 14.5131C0.562823 10.9881 0.562823 7.42704 0.975104 3.90204C1.19792 1.99699 2.72911 0.501208 4.62751 0.289034ZM14.858 3.20757C14.3057 3.20757 13.858 3.65528 13.858 4.20757C13.858 4.75985 14.3057 5.20757 14.858 5.20757C15.4103 5.20757 15.858 4.75985 15.858 4.20757C15.858 3.65528 15.4103 3.20757 14.858 3.20757ZM5.10797 9.20757C5.10797 6.58421 7.23462 4.45757 9.85797 4.45757C12.4813 4.45757 14.608 6.58421 14.608 9.20757C14.608 11.8309 12.4813 13.9576 9.85797 13.9576C7.23462 13.9576 5.10797 11.8309 5.10797 9.20757Z" fill="black"/>
</svg>
