<svg width="20" height="20" viewBox="0 0 20 20" fill="none" xmlns="http://www.w3.org/2000/svg">
<path d="M3.04089 0C1.86729 0 0.915894 0.951395 0.915894 2.125C0.915894 3.2986 1.86729 4.25 3.04089 4.25C4.2145 4.25 5.16589 3.2986 5.16589 2.125C5.16589 0.951395 4.2145 0 3.04089 0Z" fill="#E3C2B3"/>
<path d="M1.04089 6C0.971858 6 0.915894 6.05596 0.915894 6.125V19.125C0.915894 19.194 0.971858 19.25 1.04089 19.25H5.04089C5.10993 19.25 5.16589 19.194 5.16589 19.125V6.125C5.16589 6.05596 5.10993 6 5.04089 6H1.04089Z" fill="#E3C2B3"/>
<path d="M7.54089 6C7.47186 6 7.41589 6.05596 7.41589 6.125V19.125C7.41589 19.194 7.47186 19.25 7.54089 19.25H11.5409C11.6099 19.25 11.6659 19.194 11.6659 19.125V12.125C11.6659 11.6277 11.8634 11.1508 12.2151 10.7992C12.5667 10.4475 13.0436 10.25 13.5409 10.25C14.0382 10.25 14.5151 10.4475 14.8667 10.7992C15.2183 11.1508 15.4159 11.6277 15.4159 12.125V19.125C15.4159 19.194 15.4719 19.25 15.5409 19.25H19.5409C19.6099 19.25 19.6659 19.194 19.6659 19.125V10.5052C19.6659 8.0785 17.5553 6.17999 15.1407 6.3995C14.3961 6.46719 13.6599 6.65231 12.9724 6.94694L11.6659 7.50686V6.125C11.6659 6.05596 11.6099 6 11.5409 6H7.54089Z" fill="#E3C2B3"/>
</svg>
