<svg width="20" height="20" viewBox="0 0 20 20" fill="none" xmlns="http://www.w3.org/2000/svg">
<path d="M7.83652 5.40766L7.83682 5.40832C7.96808 5.70083 8.18547 6.23024 8.3589 6.65259L8.36233 6.66095C8.43083 6.82774 8.49259 6.97816 8.54075 7.09391C8.56486 7.15184 8.585 7.19974 8.60054 7.23596C8.61433 7.26807 8.62132 7.2835 8.62334 7.28795C8.62386 7.28911 8.62405 7.28952 8.62394 7.28931C8.72407 7.48871 8.82625 7.81184 8.64622 8.18078L7.83652 5.40766ZM7.83652 5.40766C7.71576 5.13959 7.55906 4.92805 7.33824 4.80005M7.83652 5.40766L7.33824 4.80005M11.17 11.965C11.1157 11.938 11.0478 11.9087 10.9852 11.8817L10.9762 11.8778L10.975 11.8773C10.6297 11.7283 9.9711 11.4441 9.20706 10.7639L9.2062 10.7631C8.55989 10.1904 8.09706 9.48318 7.91607 9.18277C8.00327 9.09454 8.09674 8.98156 8.17225 8.89029L8.1812 8.87946C8.23049 8.8199 8.27491 8.76627 8.31662 8.7184L8.31673 8.71827C8.47445 8.53714 8.54672 8.3871 8.61513 8.24506L8.61898 8.23707L8.61899 8.23706L8.64618 8.18086L7.87037 9.1104L7.84165 9.12705L7.84139 9.1272L7.43993 9.35991M11.17 11.965L11.1608 11.9834C11.1653 11.9782 11.1699 11.9728 11.1747 11.9673M11.17 11.965C11.17 11.965 11.17 11.9649 11.1699 11.9649L11.1606 11.9836C11.1484 11.9978 11.1373 12.0108 11.1274 12.0223L11.1274 12.0223C11.1145 12.0372 11.1149 12.0333 11.1294 12.0241C11.1294 12.0241 11.1294 12.0241 11.1294 12.0241C11.13 12.0237 11.1305 12.0234 11.1311 12.023C11.135 12.0207 11.1396 12.0181 11.1448 12.0155L11.1372 12.0307L11.1372 12.0308L10.9472 12.4126M11.17 11.965C11.1716 11.9658 11.1731 11.9665 11.1747 11.9673M11.1747 11.9673C11.2153 11.9872 11.2376 11.9942 11.2456 11.9963C11.2467 11.9966 11.2473 11.9967 11.2473 11.9967C11.2473 11.9967 11.2331 11.9938 11.2092 11.9966C11.1951 11.9983 11.1803 12.0016 11.1657 12.0068C11.1579 12.0095 11.1509 12.0125 11.1448 12.0155L11.1372 12.0308L11.1372 12.0308L10.9472 12.4126M11.1747 11.9673C11.3637 11.747 11.766 11.2736 11.9069 11.0662M10.9472 12.4126C11.2045 12.5406 11.3578 12.5209 11.5062 12.3486C11.6547 12.1762 12.1493 11.6001 12.3225 11.3441M10.9472 12.4126C10.9054 12.3918 10.8484 12.3672 10.7781 12.3368C10.4157 12.1805 9.69891 11.8712 8.87459 11.1373C8.10783 10.4579 7.58841 9.6159 7.43993 9.35991M11.9069 11.0662C11.9061 11.0673 11.9054 11.0685 11.9046 11.0696L12.3225 11.3441M11.9069 11.0662C11.9074 11.0654 11.9079 11.0647 11.9084 11.064L12.3225 11.3441M11.9069 11.0662C12.0446 10.858 12.245 10.6876 12.5274 10.6544C12.7544 10.6276 12.9625 10.7053 13.0716 10.746L13.0761 10.7477L13.0761 10.7477C13.2222 10.8022 13.6255 10.9933 13.9912 11.1693C14.3713 11.3523 14.7542 11.5404 14.8851 11.6055L14.8851 11.6055C14.9322 11.629 14.9766 11.6502 15.021 11.6715L14.8048 12.1224M12.3225 11.3441C12.4907 11.0881 12.6638 11.1275 12.9013 11.2161C13.1387 11.3047 14.4051 11.9251 14.6623 12.0531C14.7131 12.0784 14.7607 12.1012 14.8048 12.1224M7.43993 9.35991L7.8413 9.12711L7.84156 9.12696L7.87034 9.11027L7.93964 8.38994C7.89299 8.44348 7.84441 8.50219 7.79599 8.56069C7.71085 8.66358 7.62626 8.7658 7.55375 8.83802C7.42515 8.96593 7.29154 9.10391 7.43993 9.35991ZM14.8048 12.1224L15.021 11.6715L15.0332 11.6774C15.1125 11.7154 15.2079 11.7611 15.2893 11.8108C15.3743 11.8627 15.4995 11.9509 15.587 12.0984M14.8048 12.1224C14.9837 12.2082 15.1054 12.2665 15.157 12.3535M15.587 12.0984L15.0086 13.5746C15.2213 12.9739 15.2213 12.4618 15.157 12.3535M15.587 12.0984C15.6666 12.2325 15.683 12.387 15.6893 12.4663C15.6976 12.5722 15.6959 12.6933 15.6848 12.822C15.6627 13.0806 15.6006 13.4006 15.4799 13.7415L15.4787 13.7449C15.3119 14.2053 14.8766 14.5749 14.5052 14.8141C14.1274 15.0574 13.667 15.2604 13.3142 15.2934M15.587 12.0984C15.587 12.0983 15.5869 12.0983 15.5869 12.0982L15.157 12.3535M15.157 12.3535L13.3142 15.2934M13.3142 15.2934C13.2769 15.2969 13.2388 15.3015 13.1916 15.3072L13.1315 14.8108L13.1916 15.3072C12.9517 15.3362 12.6513 15.3714 12.1458 15.2866C11.6586 15.2049 10.9921 15.0143 9.9924 14.6208C7.42229 13.61 5.75076 11.139 5.41697 10.6455L5.41132 10.6371L5.82544 10.357L5.41132 10.6371L5.38063 10.5919L5.37228 10.5799C5.37178 10.5791 5.3714 10.5786 5.37116 10.5783L5.3669 10.5726L5.36687 10.5725L5.36681 10.5725C5.28768 10.4666 5.00521 10.0886 4.74195 9.56835C4.48206 9.05476 4.21919 8.36081 4.21919 7.62685C4.21919 6.24151 4.91552 5.50184 5.20961 5.19102L5.20962 5.19102C5.22699 5.17265 5.24083 5.15802 5.25295 5.14495C5.25296 5.14495 5.25296 5.14495 5.25296 5.14494L13.3142 15.2934ZM7.33824 4.80005C7.12729 4.67777 6.92031 4.67264 6.82564 4.67029M7.33824 4.80005L6.82564 4.67029M6.82564 4.67029C6.82253 4.67022 6.81954 4.67014 6.81668 4.67007L6.82564 4.67029ZM5.43227 18.1816C5.32077 18.1212 5.19047 18.1054 5.06777 18.1375L0.628157 19.2971L1.81273 14.9973C1.84833 14.868 1.83054 14.7299 1.76336 14.6139C0.935047 13.1837 0.499409 11.562 0.500001 9.91154V9.91136C0.500001 4.72456 4.74573 0.5 9.95787 0.5C12.4921 0.5 14.8634 1.48164 16.6495 3.25928C18.4349 5.03641 19.4159 7.40027 19.4159 9.91626C19.4159 15.103 15.1702 19.3275 9.95796 19.3275H9.95303C8.36943 19.3275 6.81383 18.93 5.43227 18.1816Z" fill="#E3C2B3" stroke="#E3C2B3" stroke-linejoin="round"/>
</svg>
